<svg width="200" height="200" viewBox="0 0 200 200" fill="none" xmlns="http://www.w3.org/2000/svg">
  <!-- Background Circle -->
  <circle cx="100" cy="100" r="95" fill="url(#gradient1)" />
  
  <!-- Gradient Definition -->
  <defs>
    <linearGradient id="gradient1" x1="0%" y1="0%" x2="100%" y2="100%">
      <stop offset="0%" style="stop-color:#667eea;stop-opacity:1" />
      <stop offset="100%" style="stop-color:#764ba2;stop-opacity:1" />
    </linearGradient>
    <linearGradient id="gradient2" x1="0%" y1="0%" x2="100%" y2="100%">
      <stop offset="0%" style="stop-color:#ffffff;stop-opacity:1" />
      <stop offset="100%" style="stop-color:#f0f8ff;stop-opacity:1" />
    </linearGradient>
  </defs>
  
  <!-- Airplane Icon -->
  <g transform="translate(100, 80)">
    <!-- Airplane body -->
    <path d="M -25 0 L 30 0 L 35 5 L 30 10 L 25 10 L 20 5 Z" fill="url(#gradient2)" />
    
    <!-- Wings -->
    <path d="M -15 0 L -30 -15 L -25 -10 L -10 -5 Z" fill="url(#gradient2)" />
    <path d="M -15 0 L -30 15 L -25 10 L -10 5 Z" fill="url(#gradient2)" />
    
    <!-- Tail -->
    <path d="M -25 0 L -30 -8 L -28 -5 L -23 -3 Z" fill="url(#gradient2)" />
    <path d="M -25 0 L -30 8 L -28 5 L -23 3 Z" fill="url(#gradient2)" />
  </g>
  
  <!-- Globe -->
  <circle cx="100" cy="130" r="30" fill="none" stroke="url(#gradient2)" stroke-width="3" />
  <ellipse cx="100" cy="130" rx="30" ry="15" fill="none" stroke="url(#gradient2)" stroke-width="2" />
  <ellipse cx="100" cy="130" rx="15" ry="30" fill="none" stroke="url(#gradient2)" stroke-width="2" />
  <line x1="70" y1="130" x2="130" y2="130" stroke="url(#gradient2)" stroke-width="2" />
</svg>
